{"title":"Tosh.0 - S02E20 - Angry Black Preacher","uid":5773674,"size":218439814,"categoryP":"video","categoryS":"tv_shows","magnet":"?xt=urn:btih:93b0a4143a3714922364dc2a5ac5daad911d60dd&amp;dn=Tosh.0+-+S02E20+-+Angry+Black+Preacher&amp;tr=udp%3A%2F%2Ftracker.openbittorrent.com%3A80&amp;tr=udp%3A%2F%2Fopen.demonii.com%3A1337&amp;tr=udp%3A%2F%2Ftracker.coppersurfer.tk%3A6969&amp;tr=udp%3A%2F%2Fexodus.desync.com%3A6969","seeders":0,"leechers":0,"uploader":"syndre","files":4,"time":1282200726,"description":"General\nComplete name                    : E:\\VideoDVD\\Tosh.0 Season 2\\Tosh.0 - S02E20 - Angry Black Preacher\\Tosh.0 - S02E20 - Angry Black Preacher.avi\nFormat                           : DivX\nFormat/Info                      : Hack of AVI\nFile size                        : 208 MiB\nDuration                         : 20mn 57s\nOverall bit rate                 : 1 390 Kbps\n\nVideo\nID                               : 0\nFormat                           : MPEG-4 Visual\nFormat settings, BVOP            : No\nFormat settings, QPel            : No\nFormat settings, GMC             : No warppoints\nFormat settings, Matrix          : Default (H.263)\nCodec ID                         : DX50\nCodec ID/Hint                    : DivX 5\nDuration                         : 20mn 57s\nBit rate                         : 1 250 Kbps\nWidth                            : 720 pixels\nHeight                           : 480 pixels\nDisplay aspect ratio             : 3:2\nFrame rate                       : 29.970 fps\nStandard                         : NTSC\nColor space                      : YUV\nChroma subsampling               : 4:2:0\nBit depth                        : 8 bits\nScan type                        : Progressive\nBits/(Pixel*Frame)               : 0.121\nStream size                      : 187 MiB (90%)\nTitle                            : Video\nWriting library                  : DivX 6.6.1.4\n\nAudio\nID                               : 1\nFormat                           : MPEG Audio\nFormat version                   : Version 1\nFormat profile                   : Layer 3\nMode                             : Joint stereo\nMode extension                   : MS Stereo\nCodec ID                         : 55\nCodec ID/Hint                    : MP3\nDuration                         : 20mn 57s\nBit rate mode                    : Constant\nBit rate                         : 128 Kbps\nChannel(s)                       : 2 channels\nSampling rate                    : 48.0 KHz\nBit depth                        : 16 bits\nStream size                      : 19.2 MiB (9%)\nAlignment                        : Split accross interleaves\nInterleave, duration             : 33 ms (1.00 video frame)\nInterleave, preload duration     : 500 ms\nTitle                            : Audio\nWriting library                  : LAME3.96\n\n","torrent":{"xt":"urn:btih:93b0a4143a3714922364dc2a5ac5daad911d60dd","amp;dn":"Tosh.0+-+S02E20+-+Angry+Black+Preacher","amp;tr":["udp%3A%2F%2Ftracker.openbittorrent.com%3A80","udp%3A%2F%2Fopen.demonii.com%3A1337","udp%3A%2F%2Ftracker.coppersurfer.tk%3A6969","udp%3A%2F%2Fexodus.desync.com%3A6969"],"infoHash":"93b0a4143a3714922364dc2a5ac5daad911d60dd","infoHashBuffer":{"type":"Buffer","data":[147,176,164,20,58,55,20,146,35,100,220,42,90,197,218,173,145,29,96,221]},"announce":[],"urlList":[]}}